<svg height="2510" width="720" xmlns="http://www.w3.org/2000/svg">
<rect height="2510" fill="#555" width="720"></rect>
<text fill="#7f7" font-family="Courier New" font-size="12" xml:space="preserve">
<tspan x="10" y="26"></tspan>
<tspan x="10" y="42">&gt; npmdoc-npm-cache@0.0.1 test /home/travis/build/npmdoc/node-npmdoc-npm-cache</tspan>
<tspan x="10" y="58">&gt; (set -e; export PORT=$(utility2 shServerPortRandom); utility2 test test.js)</tspan>
<tspan x="10" y="74"></tspan>
<tspan x="10" y="90"></tspan>
<tspan x="10" y="106">[MODE_BUILD=npmTest] - 2017-04-07T08:09:03Z - npm-testing /home/travis/build/npmdoc/node-npmdoc-\</tspan>
<tspan x="10" y="122">npm-cache</tspan>
<tspan x="10" y="138"></tspan>
<tspan x="10" y="154"></tspan>
<tspan x="10" y="170">covering $ /home/travis/.nvm/versions/node/v6.10.2/bin/node /home/travis/build/npmdoc/node-npmdo\</tspan>
<tspan x="10" y="186">c-npm-cache/test.js</tspan>
<tspan x="10" y="202">merging file:///home/travis/build/npmdoc/node-npmdoc-npm-cache/tmp/build/test-report.json to tes\</tspan>
<tspan x="10" y="218">t-report</tspan>
<tspan x="10" y="234">&gt; server listening on http-port 36532</tspan>
<tspan x="10" y="250"></tspan>
<tspan x="10" y="266">command argument is required</tspan>
<tspan x="10" y="282"></tspan>
<tspan x="10" y="298">Usage: /home/travis/.nvm/versions/node/v6.10.2/bin/node test.js &lt;command&gt; [options]</tspan>
<tspan x="10" y="314"></tspan>
<tspan x="10" y="330">command     </tspan>
<tspan x="10" y="346">  install     install specified dependencies</tspan>
<tspan x="10" y="362">  clean       clear cache directory</tspan>
<tspan x="10" y="378">  hash        reports the current working hash</tspan>
<tspan x="10" y="394"></tspan>
<tspan x="10" y="410">Options:</tspan>
<tspan x="10" y="426">   -c, --cacheDirectory   directory where dependencies will be cached  [/home/travis/.package_ca\</tspan>
<tspan x="10" y="442">che]</tspan>
<tspan x="10" y="458">   -d, --noArchive        when installing a new dependency set, those dependencies will be store\</tspan>
<tspan x="10" y="474">d uncompressed. This requires more disk space but notably increases performance</tspan>
<tspan x="10" y="490">   -v, --version          displays version info and exit</tspan>
<tspan x="10" y="506"></tspan>
<tspan x="10" y="522">Examples:</tspan>
<tspan x="10" y="538">	npm-cache install	# try to install npm, bower, and composer components</tspan>
<tspan x="10" y="554">	npm-cache install bower	# install only bower components</tspan>
<tspan x="10" y="570">	npm-cache install bower npm	# install bower and npm components</tspan>
<tspan x="10" y="586">	npm-cache install bower --allow-root composer --dry-run	# install bower with allow-root, and co\</tspan>
<tspan x="10" y="602">mposer with --dry-run</tspan>
<tspan x="10" y="618">	npm-cache install --cacheDirectory /home/cache/ bower 	# install components using /home/cache a\</tspan>
<tspan x="10" y="634">s cache directory</tspan>
<tspan x="10" y="650">	npm-cache install --forceRefresh  bower	# force installing dependencies from package manager wi\</tspan>
<tspan x="10" y="666">thout cache</tspan>
<tspan x="10" y="682">	npm-cache install --noArchive npm	# do not compress/archive the cached dependencies</tspan>
<tspan x="10" y="698">	npm-cache clean	# cleans out all cached files in cache directory</tspan>
<tspan x="10" y="714">	npm-cache hash	# reports the current working hash</tspan>
<tspan x="10" y="730">created apidoc file:///home/travis/build/npmdoc/node-npmdoc-npm-cache/tmp/build/apidoc.html</tspan>
<tspan x="10" y="746"></tspan>
<tspan x="10" y="762"></tspan>
<tspan x="10" y="778">browserTest - created electron entry-page /home/travis/build/npmdoc/node-npmdoc-npm-cache/tmp/el\</tspan>
<tspan x="10" y="794">ectron.15b4775a6ba0.66f34c378d9b7.html</tspan>
<tspan x="10" y="810"></tspan>
<tspan x="10" y="826">[node test-case 1 of 6 passed] - testCase_buildLib_default</tspan>
<tspan x="10" y="842">[node test-case 2 of 6 passed] - testCase_buildReadme_default</tspan>
<tspan x="10" y="858">[node test-case 3 of 6 passed] - testCase_buildTest_default</tspan>
<tspan x="10" y="874"></tspan>
<tspan x="10" y="890">browserTest - created electron entry-page /home/travis/build/npmdoc/node-npmdoc-npm-cache/tmp/el\</tspan>
<tspan x="10" y="906">ectron.15b4775a7140.e8f88f22b078e.html</tspan>
<tspan x="10" y="922"></tspan>
<tspan x="10" y="938">Xlib:  extension "RANDR" missing on display ":99.0".</tspan>
<tspan x="10" y="954">Xlib:  extension "RANDR" missing on display ":99.0".</tspan>
<tspan x="10" y="970">&gt; merging file:///home/travis/build/npmdoc/node-npmdoc-npm-cache/tmp/build/test-report.json to t\</tspan>
<tspan x="10" y="986">est-report</tspan>
<tspan x="10" y="1002">server listening on http-port 34691</tspan>
<tspan x="10" y="1018">Xlib:  extension "RANDR" missing on display ":99.0".</tspan>
<tspan x="10" y="1034">[4903:0407/080905:WARNING:audio_manager.cc(314)] Multiple instances of AudioManager detected</tspan>
<tspan x="10" y="1050">[4903:0407/080905:WARNING:audio_manager.cc(275)] Multiple instances of AudioManager detected</tspan>
<tspan x="10" y="1066">[4944:0407/080905:ERROR:sandbox_linux.cc(343)] InitializeSandbox() called with multiple threads \</tspan>
<tspan x="10" y="1082">in process gpu-process. </tspan>
<tspan x="10" y="1098">[4903:0407/080905:ERROR:browser_gpu_channel_host_factory.cc(131)] Failed to create channel.</tspan>
<tspan x="10" y="1114">merging file:///home/travis/build/npmdoc/node-npmdoc-npm-cache/tmp/build/test-report.json to tes\</tspan>
<tspan x="10" y="1130">t-report</tspan>
<tspan x="10" y="1146">Xlib:  extension "RANDR" missing on display ":99.0".</tspan>
<tspan x="10" y="1162">[4915:0407/080906:WARNING:audio_manager.cc(314)] Multiple instances of AudioManager detected</tspan>
<tspan x="10" y="1178">[4915:0407/080906:WARNING:audio_manager.cc(275)] Multiple instances of AudioManager detected</tspan>
<tspan x="10" y="1194"></tspan>
<tspan x="10" y="1210">browserTest - opened url /home/travis/build/npmdoc/node-npmdoc-npm-cache/tmp/build/apidoc.html</tspan>
<tspan x="10" y="1226"></tspan>
<tspan x="10" y="1242">[4983:0407/080906:ERROR:sandbox_linux.cc(343)] InitializeSandbox() called with multiple threads \</tspan>
<tspan x="10" y="1258">in process gpu-process. </tspan>
<tspan x="10" y="1274">[4915:0407/080906:ERROR:browser_gpu_channel_host_factory.cc(131)] Failed to create channel.</tspan>
<tspan x="10" y="1290"></tspan>
<tspan x="10" y="1306">browserTest - opened url http://127.0.0.1:36532?modeTest=1</tspan>
<tspan x="10" y="1322"></tspan>
<tspan x="10" y="1338">[4915:0407/080908:INFO:CONSOLE(250)] "----------|-----------|-----------|-----------|-----------\</tspan>
<tspan x="10" y="1354">|</tspan>
<tspan x="10" y="1370">File      |   % Stmts |% Branches |   % Funcs |   % Lines |</tspan>
<tspan x="10" y="1386">----------|-----------|-----------|-----------|-----------|</tspan>
<tspan x="10" y="1402">----------|-----------|-----------|-----------|-----------|</tspan>
<tspan x="10" y="1418">All files |       100 |       100 |       100 |       100 |</tspan>
<tspan x="10" y="1434">----------|-----------|-----------|-----------|-----------|</tspan>
<tspan x="10" y="1450">", source: file:///home/travis/build/npmdoc/node-npmdoc-npm-cache/tmp/electron.15b4775a7140.e8f8\</tspan>
<tspan x="10" y="1466">8f22b078e.html (250)</tspan>
<tspan x="10" y="1482">[4915:0407/080908:INFO:CONSOLE(250)] "created coverage file:///tmp/build/coverage.html/index.htm\</tspan>
<tspan x="10" y="1498">l", source: file:///home/travis/build/npmdoc/node-npmdoc-npm-cache/tmp/electron.15b4775a7140.e8f\</tspan>
<tspan x="10" y="1514">88f22b078e.html (250)</tspan>
<tspan x="10" y="1530">[node test-case 4 of 6 passed] - testCase_buildApp_default</tspan>
<tspan x="10" y="1546"></tspan>
<tspan x="10" y="1562">browserTest - created screenCapture file:///home/travis/build/npmdoc/node-npmdoc-npm-cache/tmp/b\</tspan>
<tspan x="10" y="1578">uild/screenCapture.npmTest.browser._2Fhome_2Ftravis_2Fbuild_2Fnpmdoc_2Fnode-npmdoc-npm-cache_2Ft\</tspan>
<tspan x="10" y="1594">mp_2Fbuild_2Fapidoc.html.png</tspan>
<tspan x="10" y="1610"></tspan>
<tspan x="10" y="1626">browserTest - created screenCapture file:///home/travis/build/npmdoc/node-npmdoc-npm-cache/tmp/b\</tspan>
<tspan x="10" y="1642">uild/screenCapture.npmTest.browser._2Fhome_2Ftravis_2Fbuild_2Fnpmdoc_2Fnode-npmdoc-npm-cache_2Ft\</tspan>
<tspan x="10" y="1658">mp_2Fbuild_2Fapidoc.html.html</tspan>
<tspan x="10" y="1674"></tspan>
<tspan x="10" y="1690">browserTest - exit-code 0 - /home/travis/build/npmdoc/node-npmdoc-npm-cache/tmp/build/apidoc.htm\</tspan>
<tspan x="10" y="1706">l</tspan>
<tspan x="10" y="1722"></tspan>
<tspan x="10" y="1738">[node test-case 5 of 6 passed] - testCase_buildApidoc_default</tspan>
<tspan x="10" y="1754"></tspan>
<tspan x="10" y="1770">browserTest - created screenCapture file:///home/travis/build/npmdoc/node-npmdoc-npm-cache/tmp/b\</tspan>
<tspan x="10" y="1786">uild/screenCapture.npmTest.browser..png</tspan>
<tspan x="10" y="1802"></tspan>
<tspan x="10" y="1818">browserTest - created screenCapture file:///home/travis/build/npmdoc/node-npmdoc-npm-cache/tmp/b\</tspan>
<tspan x="10" y="1834">uild/screenCapture.npmTest.browser..html</tspan>
<tspan x="10" y="1850"></tspan>
<tspan x="10" y="1866">browserTest - exit-code 0 - http://127.0.0.1:36532?modeTest=1</tspan>
<tspan x="10" y="1882"></tspan>
<tspan x="10" y="1898"></tspan>
<tspan x="10" y="1914">browserTest - merged coverage from /home/travis/build/npmdoc/node-npmdoc-npm-cache/tmp/coverage.\</tspan>
<tspan x="10" y="1930">npmTest.browser.%2F.json</tspan>
<tspan x="10" y="1946"></tspan>
<tspan x="10" y="1962"></tspan>
<tspan x="10" y="1978">browserTest - merging test-report from /home/travis/build/npmdoc/node-npmdoc-npm-cache/tmp/test-\</tspan>
<tspan x="10" y="1994">report.npmTest.browser.%2F.json</tspan>
<tspan x="10" y="2010"></tspan>
<tspan x="10" y="2026">[node test-case 6 of 6 passed] - testCase_webpage_default</tspan>
<tspan x="10" y="2042">------------------------------|-----------|-----------|-----------|-----------|</tspan>
<tspan x="10" y="2058">File                          |   % Stmts |% Branches |   % Funcs |   % Lines |</tspan>
<tspan x="10" y="2074">------------------------------|-----------|-----------|-----------|-----------|</tspan>
<tspan x="10" y="2090">   node-npmdoc-npm-cache/     |       100 |       100 |       100 |       100 |</tspan>
<tspan x="10" y="2106">      example.js              |       100 |       100 |       100 |       100 |</tspan>
<tspan x="10" y="2122">      lib.npmdoc_npm_cache.js |       100 |       100 |       100 |       100 |</tspan>
<tspan x="10" y="2138">      test.js                 |       100 |       100 |       100 |       100 |</tspan>
<tspan x="10" y="2154">------------------------------|-----------|-----------|-----------|-----------|</tspan>
<tspan x="10" y="2170">All files                     |       100 |       100 |       100 |       100 |</tspan>
<tspan x="10" y="2186">------------------------------|-----------|-----------|-----------|-----------|</tspan>
<tspan x="10" y="2202"></tspan>
<tspan x="10" y="2218">created coverage file:///home/travis/build/npmdoc/node-npmdoc-npm-cache/tmp/build/coverage.html/\</tspan>
<tspan x="10" y="2234">index.html</tspan>
<tspan x="10" y="2250">merging file:///home/travis/build/npmdoc/node-npmdoc-npm-cache/tmp/build/test-report.json to tes\</tspan>
<tspan x="10" y="2266">t-report</tspan>
<tspan x="10" y="2282"></tspan>
<tspan x="10" y="2298">-------------------------------------------------------</tspan>
<tspan x="10" y="2314">| test-report - buildNpmdoc - node - linux v6.10.2 - 2017-04-07T08:08:42.407Z</tspan>
<tspan x="10" y="2330">|   37059 ms            0 failed        6 passed      |</tspan>
<tspan x="10" y="2346">-------------------------------------------------------</tspan>
<tspan x="10" y="2362"></tspan>
<tspan x="10" y="2378">created test-report file:///home/travis/build/npmdoc/node-npmdoc-npm-cache/tmp/build/test-report\</tspan>
<tspan x="10" y="2394">.html</tspan>
<tspan x="10" y="2410"></tspan>
<tspan x="10" y="2426"></tspan>
<tspan x="10" y="2442">npmTest - 0 failed tests</tspan>
<tspan x="10" y="2458"></tspan>
<tspan x="10" y="2474"></tspan>
<tspan x="10" y="2490">[MODE_BUILD=npmTest] - 2017-04-07T08:09:23Z - EXIT_CODE - 0</tspan>
</text>
</svg>
